<svg width="2400" height="1260" xmlns="http://www.w3.org/2000/svg">
  <defs>
    <linearGradient id="accent" x1="0%" y1="0%" x2="100%" y2="100%">
      <stop offset="0%" style="stop-color:#3451a1;stop-opacity:0.3"/>
      <stop offset="100%" style="stop-color:#1e1b4b;stop-opacity:0.1"/>
    </linearGradient>
  </defs>

  <!-- Background -->
  <rect width="2400" height="1260" fill="#0b0e14"/>

  <!-- Subtle accent glow -->
  <ellipse cx="1800" cy="400" rx="800" ry="600" fill="url(#accent)"/>

  <!-- Grid pattern (terminal aesthetic) -->
  <g stroke="#2a2d36" stroke-width="1" opacity="0.4">
    <line x1="0" y1="0" x2="0" y2="1260"/>
    <line x1="240" y1="0" x2="240" y2="1260"/>
    <line x1="480" y1="0" x2="480" y2="1260"/>
    <line x1="720" y1="0" x2="720" y2="1260"/>
    <line x1="960" y1="0" x2="960" y2="1260"/>
    <line x1="1200" y1="0" x2="1200" y2="1260"/>
    <line x1="1440" y1="0" x2="1440" y2="1260"/>
    <line x1="1680" y1="0" x2="1680" y2="1260"/>
    <line x1="1920" y1="0" x2="1920" y2="1260"/>
    <line x1="2160" y1="0" x2="2160" y2="1260"/>
    <line x1="0" y1="252" x2="2400" y2="252"/>
    <line x1="0" y1="504" x2="2400" y2="504"/>
    <line x1="0" y1="756" x2="2400" y2="756"/>
    <line x1="0" y1="1008" x2="2400" y2="1008"/>
  </g>

  <!-- Logo -->
  <text x="160" y="440" font-family="'Courier New', monospace" font-size="144" font-weight="700" fill="#e8eaf0">loopctl</text>

  <!-- Accent bar -->
  <rect x="160" y="480" width="120" height="8" rx="4" fill="#3451a1"/>

  <!-- Tagline -->
  <text x="160" y="580" font-family="'Helvetica Neue', Arial, sans-serif" font-size="64" fill="#b4b8c7">Structural trust for AI development loops</text>

  <!-- Subtext -->
  <text x="160" y="740" font-family="'Helvetica Neue', Arial, sans-serif" font-size="44" fill="#5a5f72">Chain-of-custody verification  &#xb7;  Review enforcement  &#xb7;  Progress tracking</text>

  <!-- Bottom info -->
  <text x="160" y="1080" font-family="'Courier New', monospace" font-size="36" fill="#5a5f72">loopctl.com</text>
  <text x="560" y="1080" font-family="'Courier New', monospace" font-size="36" fill="#3d4150">&#xb7;</text>
  <text x="620" y="1080" font-family="'Courier New', monospace" font-size="36" fill="#5a5f72">Free and open source</text>
  <text x="1200" y="1080" font-family="'Courier New', monospace" font-size="36" fill="#3d4150">&#xb7;</text>
  <text x="1260" y="1080" font-family="'Courier New', monospace" font-size="36" fill="#5a5f72">Built with Elixir and Phoenix</text>
</svg>
